<svg width="76" height="76" viewBox="0 0 76 76" fill="none" xmlns="http://www.w3.org/2000/svg">
<rect width="76" height="76" rx="38" fill="url(#paint0_linear_113_7210)" fill-opacity="0.05"/>
<rect x="8" y="8" width="60" height="60" rx="30" fill="url(#paint1_linear_113_7210)" fill-opacity="0.1"/>
<rect x="8.5" y="8.5" width="59" height="59" rx="29.5" stroke="url(#paint2_linear_113_7210)" stroke-opacity="0.2"/>
<path d="M38 24.875C32.6843 24.875 28.375 29.1843 28.375 34.5C28.375 38.0592 30.3074 41.1661 33.176 42.8305C33.9757 43.2945 34.4765 44.0065 34.4992 44.723C34.5117 45.1182 34.7877 45.4559 35.1725 45.5469C35.5824 45.6437 36.0002 45.72 36.4245 45.7745C36.8021 45.823 37.1252 45.5206 37.1252 45.14V39.7021C36.7527 39.6609 36.3877 39.5937 36.0321 39.5021C35.5641 39.3817 35.2824 38.9046 35.4028 38.4367C35.5233 37.9687 36.0003 37.6869 36.4683 37.8074C36.9569 37.9331 37.4701 38.0002 38.0002 38.0002C38.5304 38.0002 39.0435 37.9331 39.5321 37.8074C40.0001 37.6869 40.4771 37.9687 40.5976 38.4367C40.718 38.9046 40.4363 39.3817 39.9683 39.5021C39.6127 39.5937 39.2477 39.6609 38.8752 39.7021V45.1399C38.8752 45.5206 39.1984 45.823 39.5759 45.7745C40.0001 45.72 40.4177 45.6437 40.8275 45.5469C41.2123 45.4559 41.4883 45.1182 41.5008 44.723C41.5235 44.0065 42.0243 43.2945 42.824 42.8305C45.6926 41.1661 47.625 38.0592 47.625 34.5C47.625 29.1843 43.3157 24.875 38 24.875Z" fill="#CAFF33"/>
<path fill-rule="evenodd" clip-rule="evenodd" d="M34.5153 47.2163C34.6054 46.7415 35.0633 46.4296 35.5381 46.5197C36.3349 46.6708 37.1578 46.75 38 46.75C38.8422 46.75 39.6651 46.6708 40.4619 46.5197C40.9367 46.4296 41.3946 46.7415 41.4847 47.2163C41.5747 47.691 41.2629 48.1489 40.7881 48.239C39.8843 48.4104 38.9522 48.5 38 48.5C37.0478 48.5 36.1157 48.4104 35.2119 48.239C34.7371 48.1489 34.4253 47.691 34.5153 47.2163Z" fill="#CAFF33"/>
<path fill-rule="evenodd" clip-rule="evenodd" d="M35.3797 50.068C35.43 49.5873 35.8604 49.2385 36.341 49.2887C36.886 49.3458 37.4394 49.375 38 49.375C38.5606 49.375 39.114 49.3458 39.659 49.2887C40.1396 49.2385 40.57 49.5873 40.6203 50.068C40.6705 50.5486 40.3217 50.979 39.841 51.0292C39.2357 51.0926 38.6215 51.125 38 51.125C37.3785 51.125 36.7643 51.0926 36.159 51.0292C35.6783 50.979 35.3295 50.5486 35.3797 50.068Z" fill="#CAFF33"/>
<defs>
<linearGradient id="paint0_linear_113_7210" x1="38" y1="0" x2="38" y2="76" gradientUnits="userSpaceOnUse">
<stop stop-color="#CAFF33"/>
<stop offset="1" stop-color="#CAFF33" stop-opacity="0"/>
</linearGradient>
<linearGradient id="paint1_linear_113_7210" x1="38" y1="-31.7297" x2="38" y2="162.865" gradientUnits="userSpaceOnUse">
<stop stop-color="#CAFF33"/>
<stop offset="0.467671" stop-color="#CAFF33" stop-opacity="0"/>
</linearGradient>
<linearGradient id="paint2_linear_113_7210" x1="38" y1="-96.1892" x2="38" y2="122.324" gradientUnits="userSpaceOnUse">
<stop stop-color="#CAFF33"/>
<stop offset="0.716291" stop-color="#CAFF33" stop-opacity="0"/>
</linearGradient>
</defs>
</svg>
