<svg width="76" height="76" viewBox="0 0 76 76" fill="none" xmlns="http://www.w3.org/2000/svg">
<rect width="76" height="76" rx="38" fill="url(#paint0_linear_113_7201)" fill-opacity="0.05"/>
<rect x="8" y="8" width="60" height="60" rx="30" fill="url(#paint1_linear_113_7201)" fill-opacity="0.1"/>
<rect x="8.5" y="8.5" width="59" height="59" rx="29.5" stroke="url(#paint2_linear_113_7201)" stroke-opacity="0.2"/>
<path fill-rule="evenodd" clip-rule="evenodd" d="M26.625 26.625C26.1418 26.625 25.75 27.0168 25.75 27.5C25.75 27.9832 26.1418 28.375 26.625 28.375H27.5V40.625C27.5 42.558 29.067 44.125 31 44.125H32.411L31.0449 48.2233C30.8921 48.6818 31.1399 49.1773 31.5983 49.3301C32.0568 49.4829 32.5523 49.2351 32.7051 48.7767L33.089 47.625H42.911L43.2949 48.7767C43.4477 49.2351 43.9432 49.4829 44.4017 49.3301C44.8601 49.1773 45.1079 48.6818 44.9551 48.2233L43.589 44.125H45C46.933 44.125 48.5 42.558 48.5 40.625V28.375H49.375C49.8582 28.375 50.25 27.9832 50.25 27.5C50.25 27.0168 49.8582 26.625 49.375 26.625H26.625ZM33.6723 45.875L34.2557 44.125H41.7443L42.3277 45.875H33.6723ZM42.375 31.875C42.375 31.3918 41.9832 31 41.5 31C41.0168 31 40.625 31.3918 40.625 31.875V38.875C40.625 39.3583 41.0168 39.75 41.5 39.75C41.9832 39.75 42.375 39.3583 42.375 38.875V31.875ZM38.875 34.5C38.875 34.0168 38.4832 33.625 38 33.625C37.5168 33.625 37.125 34.0168 37.125 34.5V38.875C37.125 39.3583 37.5168 39.75 38 39.75C38.4832 39.75 38.875 39.3583 38.875 38.875V34.5ZM35.375 37.125C35.375 36.6418 34.9832 36.25 34.5 36.25C34.0168 36.25 33.625 36.6418 33.625 37.125V38.875C33.625 39.3583 34.0168 39.75 34.5 39.75C34.9832 39.75 35.375 39.3583 35.375 38.875V37.125Z" fill="#CAFF33"/>
<defs>
<linearGradient id="paint0_linear_113_7201" x1="38" y1="0" x2="38" y2="76" gradientUnits="userSpaceOnUse">
<stop stop-color="#CAFF33"/>
<stop offset="1" stop-color="#CAFF33" stop-opacity="0"/>
</linearGradient>
<linearGradient id="paint1_linear_113_7201" x1="38" y1="-31.7297" x2="38" y2="162.865" gradientUnits="userSpaceOnUse">
<stop stop-color="#CAFF33"/>
<stop offset="0.467671" stop-color="#CAFF33" stop-opacity="0"/>
</linearGradient>
<linearGradient id="paint2_linear_113_7201" x1="38" y1="-96.1892" x2="38" y2="122.324" gradientUnits="userSpaceOnUse">
<stop stop-color="#CAFF33"/>
<stop offset="0.716291" stop-color="#CAFF33" stop-opacity="0"/>
</linearGradient>
</defs>
</svg>
