<svg width="76" height="76" viewBox="0 0 76 76" fill="none" xmlns="http://www.w3.org/2000/svg">
<rect width="76" height="76" rx="38" fill="url(#paint0_linear_113_7220)" fill-opacity="0.05"/>
<rect x="8" y="8" width="60" height="60" rx="30" fill="url(#paint1_linear_113_7220)" fill-opacity="0.1"/>
<rect x="8.5" y="8.5" width="59" height="59" rx="29.5" stroke="url(#paint2_linear_113_7220)" stroke-opacity="0.2"/>
<path fill-rule="evenodd" clip-rule="evenodd" d="M32.75 30.125C32.75 28.192 34.317 26.625 36.25 26.625H39.75C41.683 26.625 43.25 28.192 43.25 30.125V30.3641C44.3379 30.4637 45.417 30.594 46.4864 30.754C48.1828 31.0078 49.375 32.4836 49.375 34.1566V37.6954C49.375 39.1084 48.5191 40.4398 47.116 40.9063C44.2494 41.8593 41.184 42.375 38 42.375C34.816 42.375 31.7507 41.8593 28.884 40.9062C27.4809 40.4398 26.625 39.1083 26.625 37.6953V34.1566C26.625 32.4836 27.8172 31.0078 29.5136 30.754C30.583 30.594 31.6621 30.4637 32.75 30.3641V30.125ZM41.5 30.125V30.231C40.3423 30.1607 39.1753 30.125 38 30.125C36.8248 30.125 35.6577 30.1607 34.5 30.231V30.125C34.5 29.1585 35.2835 28.375 36.25 28.375H39.75C40.7165 28.375 41.5 29.1585 41.5 30.125ZM38 39.75C38.4832 39.75 38.875 39.3583 38.875 38.875C38.875 38.3918 38.4832 38 38 38C37.5168 38 37.125 38.3918 37.125 38.875C37.125 39.3583 37.5168 39.75 38 39.75Z" fill="#CAFF33"/>
<path d="M27.5 45.4666V42.2046C27.7602 42.3473 28.0378 42.4691 28.3319 42.5669C31.3743 43.5784 34.626 44.125 38 44.125C41.374 44.125 44.6257 43.5784 47.6681 42.5669C47.9622 42.4691 48.2398 42.3473 48.5 42.2046V45.4666C48.5 47.1605 47.2782 48.6487 45.5563 48.8773C43.0838 49.2056 40.5615 49.375 38 49.375C35.4385 49.375 32.9162 49.2056 30.4437 48.8773C28.7218 48.6487 27.5 47.1605 27.5 45.4666Z" fill="#CAFF33"/>
<defs>
<linearGradient id="paint0_linear_113_7220" x1="38" y1="0" x2="38" y2="76" gradientUnits="userSpaceOnUse">
<stop stop-color="#CAFF33"/>
<stop offset="1" stop-color="#CAFF33" stop-opacity="0"/>
</linearGradient>
<linearGradient id="paint1_linear_113_7220" x1="38" y1="-31.7297" x2="38" y2="162.865" gradientUnits="userSpaceOnUse">
<stop stop-color="#CAFF33"/>
<stop offset="0.467671" stop-color="#CAFF33" stop-opacity="0"/>
</linearGradient>
<linearGradient id="paint2_linear_113_7220" x1="38" y1="-96.1892" x2="38" y2="122.324" gradientUnits="userSpaceOnUse">
<stop stop-color="#CAFF33"/>
<stop offset="0.716291" stop-color="#CAFF33" stop-opacity="0"/>
</linearGradient>
</defs>
</svg>
