<svg width="17" height="18" viewBox="0 0 17 18" fill="none" xmlns="http://www.w3.org/2000/svg">
<path fill-rule="evenodd" clip-rule="evenodd" d="M5.66907 2.16563C6.35588 1.37578 7.36943 0.875 8.5 0.875C9.63051 0.875 10.644 1.37573 11.3308 2.16551C12.3751 2.09255 13.446 2.45513 14.2455 3.25464C15.045 4.05415 15.4076 5.12507 15.3347 6.16933C16.1243 6.85613 16.625 7.86957 16.625 9C16.625 10.1306 16.1242 11.1443 15.3342 11.8311C15.407 12.8751 15.0444 13.9458 14.2451 14.7452C13.4457 15.5446 12.375 15.9072 11.3309 15.8344C10.6441 16.6242 9.63056 17.125 8.5 17.125C7.3695 17.125 6.356 16.6243 5.6692 15.8345C4.62493 15.9075 3.554 15.5449 2.75448 14.7454C1.95496 13.9459 1.59238 12.8749 1.66534 11.8307C0.875654 11.1439 0.375 10.1304 0.375 9C0.375 7.86951 0.875705 6.85602 1.66546 6.16921C1.59258 5.12504 1.95517 4.05423 2.75462 3.25478C3.55406 2.45533 4.62489 2.09274 5.66907 2.16563ZM11.5086 7.48827C11.7092 7.20739 11.6442 6.81705 11.3633 6.61642C11.0824 6.41579 10.692 6.48084 10.4914 6.76173L7.79525 10.5364L6.44194 9.18306C6.19786 8.93898 5.80214 8.93898 5.55806 9.18306C5.31398 9.42714 5.31398 9.82286 5.55806 10.0669L7.43306 11.9419C7.56297 12.0719 7.74346 12.138 7.92655 12.1229C8.10964 12.1077 8.2768 12.0128 8.38358 11.8633L11.5086 7.48827Z" fill="#CAFF33"/>
</svg>
