<svg width="11" height="10" viewBox="0 0 11 10" fill="none" xmlns="http://www.w3.org/2000/svg">
<path fill-rule="evenodd" clip-rule="evenodd" d="M5.41518 0.388672C5.70122 0.388672 5.9331 0.619278 5.9331 0.903745V4.50926H9.55854C9.84457 4.50926 10.0765 4.73986 10.0765 5.02433C10.0765 5.3088 9.84457 5.5394 9.55854 5.5394H5.9331V9.14492C5.9331 9.42939 5.70122 9.65999 5.41518 9.65999C5.12914 9.65999 4.89726 9.42939 4.89726 9.14492V5.5394H1.27183C0.985787 5.5394 0.753906 5.3088 0.753906 5.02433C0.753906 4.73986 0.985787 4.50926 1.27183 4.50926H4.89726V0.903745C4.89726 0.619278 5.12914 0.388672 5.41518 0.388672Z" fill="#1A1A1A"/>
</svg>
