<svg width="14" height="14" viewBox="0 0 14 14" fill="none" xmlns="http://www.w3.org/2000/svg">
<path fill-rule="evenodd" clip-rule="evenodd" d="M9.70723 0.942873C9.47367 1.19302 9.48824 1.5841 9.73977 1.81638L11.4803 3.42374L4.36197 3.42374C4.01872 3.42374 3.74047 3.70047 3.74047 4.04183C3.74047 4.38319 4.01872 4.65992 4.36197 4.65992L11.4803 4.65992L9.73977 6.26728C9.48824 6.49956 9.47367 6.89064 9.70723 7.14079C9.9408 7.39094 10.334 7.40542 10.5856 7.17314L13.4859 4.49476C13.6126 4.37781 13.6845 4.2137 13.6845 4.04183C13.6845 3.86996 13.6126 3.70585 13.4859 3.5889L10.5856 0.910521C10.334 0.678242 9.9408 0.692727 9.70723 0.942873ZM4.40307 7.53581C4.1695 7.28566 3.77626 7.27118 3.52473 7.50346L0.624382 10.1818C0.49774 10.2988 0.425781 10.4629 0.425781 10.6348C0.425781 10.8066 0.49774 10.9707 0.624382 11.0877L3.52473 13.7661C3.77626 13.9984 4.1695 13.9839 4.40307 13.7337C4.63663 13.4836 4.62207 13.0925 4.37054 12.8602L2.62997 11.2529H9.74833C10.0916 11.2529 10.3698 10.9761 10.3698 10.6348C10.3698 10.2934 10.0916 10.0167 9.74833 10.0167H2.62997L4.37054 8.40932C4.62207 8.17704 4.63663 7.78596 4.40307 7.53581Z" fill="#1C1C1C"/>
</svg>
