<svg width="73" height="72" viewBox="0 0 73 72" fill="none" xmlns="http://www.w3.org/2000/svg">
<rect x="0.333008" width="72" height="72" rx="36" fill="url(#paint0_linear_104_2438)" fill-opacity="0.05"/>
<rect x="8.33301" y="8" width="56" height="56" rx="28" fill="url(#paint1_linear_104_2438)" fill-opacity="0.1"/>
<rect x="8.83301" y="8.5" width="55" height="55" rx="27.5" stroke="url(#paint2_linear_104_2438)" stroke-opacity="0.2"/>
<path d="M36.333 30.75C34.8833 30.75 33.708 31.9253 33.708 33.375C33.708 34.8247 34.8833 36 36.333 36C37.7828 36 38.958 34.8247 38.958 33.375C38.958 31.9253 37.7828 30.75 36.333 30.75Z" fill="#CAFF33"/>
<path fill-rule="evenodd" clip-rule="evenodd" d="M24.083 27.6875C24.083 26.4794 25.0624 25.5 26.2705 25.5H46.3955C47.6036 25.5 48.583 26.4794 48.583 27.6875V39.0625C48.583 40.2706 47.6036 41.25 46.3955 41.25H26.2705C25.0624 41.25 24.083 40.2706 24.083 39.0625V27.6875ZM31.958 33.375C31.958 30.9588 33.9168 29 36.333 29C38.7493 29 40.708 30.9588 40.708 33.375C40.708 35.7912 38.7493 37.75 36.333 37.75C33.9168 37.75 31.958 35.7912 31.958 33.375ZM44.208 32.5C43.7248 32.5 43.333 32.8918 43.333 33.375V33.3837C43.333 33.867 43.7248 34.2587 44.208 34.2587H44.2168C44.7 34.2587 45.0918 33.867 45.0918 33.3837V33.375C45.0918 32.8918 44.7 32.5 44.2168 32.5H44.208ZM27.583 33.375C27.583 32.8918 27.9748 32.5 28.458 32.5H28.4668C28.95 32.5 29.3418 32.8918 29.3418 33.375V33.3837C29.3418 33.867 28.95 34.2587 28.4668 34.2587H28.458C27.9748 34.2587 27.583 33.867 27.583 33.3837V33.375Z" fill="#CAFF33"/>
<path d="M24.958 43C24.4748 43 24.083 43.3918 24.083 43.875C24.083 44.3582 24.4748 44.75 24.958 44.75C31.2581 44.75 37.3599 45.5926 43.1577 47.1707C44.5468 47.5488 45.958 46.5196 45.958 45.0476V43.875C45.958 43.3918 45.5663 43 45.083 43H24.958Z" fill="#CAFF33"/>
<defs>
<linearGradient id="paint0_linear_104_2438" x1="36.333" y1="0" x2="36.333" y2="72" gradientUnits="userSpaceOnUse">
<stop stop-color="#CAFF33"/>
<stop offset="1" stop-color="#CAFF33" stop-opacity="0"/>
</linearGradient>
<linearGradient id="paint1_linear_104_2438" x1="36.333" y1="-29.0811" x2="36.333" y2="152.541" gradientUnits="userSpaceOnUse">
<stop stop-color="#CAFF33"/>
<stop offset="0.467671" stop-color="#CAFF33" stop-opacity="0"/>
</linearGradient>
<linearGradient id="paint2_linear_104_2438" x1="36.333" y1="-89.2432" x2="36.333" y2="114.703" gradientUnits="userSpaceOnUse">
<stop stop-color="#CAFF33"/>
<stop offset="0.716291" stop-color="#CAFF33" stop-opacity="0"/>
</linearGradient>
</defs>
</svg>
