<svg width="10" height="13" viewBox="0 0 10 13" fill="none" xmlns="http://www.w3.org/2000/svg">
<path fill-rule="evenodd" clip-rule="evenodd" d="M9.87641 5.13378C10.0626 3.89393 9.11339 3.22741 7.81545 2.78278L8.23648 1.10324L7.2082 0.848457L6.7983 2.48373C6.52834 2.41676 6.25078 2.35358 5.97497 2.29097L6.3878 0.644921L5.3604 0.390137L4.93907 2.06909C4.71538 2.01843 4.49579 1.96834 4.28263 1.91564L4.28381 1.9104L2.86611 1.55836L2.59265 2.65029C2.59265 2.65029 3.35537 2.82413 3.33926 2.8349C3.75561 2.93827 3.83115 3.21227 3.81827 3.42949L3.33868 5.34285C3.36737 5.35013 3.40456 5.36061 3.44555 5.37692L3.33721 5.35013L2.66467 8.03046C2.61373 8.15625 2.48461 8.34493 2.19357 8.2733C2.20382 8.28815 1.44637 8.08782 1.44637 8.08782L0.936035 9.25837L2.27409 9.59003C2.42513 9.62767 2.57433 9.66638 2.7219 9.70467C2.81748 9.72947 2.91238 9.75409 3.00665 9.77813L2.58123 11.4772L3.60804 11.732L4.02966 10.0513C4.30986 10.127 4.58216 10.1968 4.8486 10.2627L4.42874 11.9355L5.45673 12.1903L5.88215 10.4947C7.63509 10.8246 8.95353 10.6916 9.50778 9.11511C9.95487 7.84556 9.48582 7.11323 8.56353 6.63541C9.23519 6.48079 9.74114 6.04139 9.87611 5.13378H9.87641ZM7.52561 8.40886C7.23377 9.57407 5.39945 9.09195 4.56091 8.87155C4.48582 8.85182 4.41871 8.83418 4.36141 8.82001L4.92591 6.56947C4.99594 6.58685 5.08149 6.60594 5.1784 6.62757L5.17844 6.62757C6.04594 6.82117 7.82376 7.21792 7.5259 8.40886H7.52561ZM5.35293 5.58347C6.05261 5.76911 7.57772 6.17375 7.84341 5.11525C8.11503 4.03237 6.63201 3.70598 5.90772 3.54658C5.8263 3.52866 5.75446 3.51285 5.69579 3.49832L5.18399 5.5395C5.23242 5.5515 5.28926 5.56658 5.35293 5.58347Z" fill="#CAFF33"/>
</svg>
