<svg width="9" height="14" viewBox="0 0 9 14" fill="none" xmlns="http://www.w3.org/2000/svg">
<path fill-rule="evenodd" clip-rule="evenodd" d="M3.24422 0.389893C4.00273 0.389893 4.75845 0.389893 5.51697 0.389893C5.47235 0.900184 5.42494 1.41325 5.38311 1.92354C6.26711 1.98733 7.12881 2.27021 7.90405 2.68898C7.56941 3.52652 7.23199 4.36407 6.89456 5.20161C6.24201 4.64972 5.38311 4.34465 4.527 4.35575C4.31227 4.36129 4.08918 4.40289 3.9107 4.52492C3.79358 4.60535 3.70713 4.73014 3.68204 4.86881C3.66251 4.97974 3.66809 5.10454 3.72944 5.20438C3.79916 5.31532 3.92186 5.38188 4.04456 5.42348C4.29554 5.51222 4.56604 5.51777 4.82817 5.5455C5.44446 5.62038 6.06354 5.72577 6.64637 5.94486C7.09813 6.11681 7.53037 6.37473 7.83991 6.7519C8.13272 7.09856 8.30283 7.53675 8.36697 7.98603C8.44226 8.50464 8.41995 9.04266 8.25821 9.54741C8.13272 9.95231 7.91799 10.3295 7.63913 10.6484C7.06188 11.314 6.21413 11.7134 5.34407 11.816C5.37196 12.3623 5.40542 12.9059 5.4361 13.4522C4.71662 13.4522 3.99994 13.4522 3.28326 13.4522C3.31114 12.9115 3.3474 12.3707 3.3725 11.8299C2.79524 11.8104 2.22357 11.6829 1.68536 11.4804C1.16388 11.2835 0.667506 11.0228 0.20459 10.7178C0.544805 9.84693 0.88502 8.9761 1.22802 8.10251C1.61565 8.42699 2.02837 8.72928 2.48013 8.95946C2.96535 9.20629 3.50356 9.36437 4.05014 9.36992C4.30948 9.37269 4.57719 9.35882 4.82259 9.27008C4.97318 9.21461 5.12098 9.11754 5.18791 8.96501C5.25762 8.80416 5.25204 8.60171 5.14608 8.45749C5.07078 8.36043 4.96481 8.29387 4.85327 8.24672C4.70268 8.18571 4.54652 8.15243 4.38756 8.12747C3.80195 8.03317 3.21354 7.95552 2.64745 7.77248C2.1929 7.62549 1.7495 7.42027 1.38698 7.10411C1.15831 6.9072 0.96868 6.66593 0.834825 6.39414C0.634042 5.98923 0.558748 5.53164 0.564326 5.08236C0.564326 4.58039 0.667506 4.07009 0.918484 3.62914C1.136 3.23532 1.46785 2.91362 1.84153 2.66679C2.29329 2.37005 2.79803 2.16759 3.31114 2.00397C3.28884 1.46594 3.26653 0.927917 3.24422 0.389893Z" fill="#CAFF33"/>
</svg>
