<svg width="10" height="14" viewBox="0 0 10 14" fill="none" xmlns="http://www.w3.org/2000/svg">
<path d="M9.44258 12.4381L9.12558 11.0065C9.1076 10.9223 9.06231 10.8592 8.98972 10.8174C8.91123 10.7753 8.8328 10.7695 8.7544 10.7995L8.70905 10.8174L8.60028 10.8444C8.55191 10.8562 8.4961 10.8698 8.43273 10.8848C8.36934 10.8998 8.29554 10.9147 8.2109 10.9298C8.1267 10.9448 8.03724 10.9584 7.9439 10.9704C7.85038 10.9822 7.74944 10.9929 7.64069 11.0019C7.53191 11.0108 7.42339 11.0153 7.31465 11.0153C6.54801 11.0153 5.8583 10.8098 5.2457 10.3986C4.63299 9.98726 4.18177 9.43046 3.89207 8.72824H7.39596C7.46249 8.72824 7.52284 8.70579 7.57698 8.66066C7.63149 8.61574 7.6647 8.56027 7.67653 8.494L7.89383 7.48548C7.91203 7.39569 7.89383 7.31454 7.83966 7.24244C7.77931 7.17034 7.70367 7.13426 7.61326 7.13426H3.45754C3.43943 6.72608 3.43943 6.41094 3.45754 6.18878H7.87601C8.03914 6.18878 8.13561 6.11081 8.16577 5.95473L8.38307 4.92819C8.40105 4.84417 8.38025 4.76621 8.31968 4.69411C8.26554 4.62207 8.19009 4.5859 8.0935 4.5859H3.85595C4.15777 3.91358 4.61044 3.38533 5.21414 3.00112C5.81777 2.61681 6.49987 2.42477 7.26042 2.42477C7.28465 2.41279 7.3736 2.41582 7.52741 2.43379C7.68132 2.45171 7.769 2.45928 7.79003 2.45625C7.81087 2.45328 7.88967 2.46234 8.02534 2.48322C8.1612 2.50422 8.22917 2.51475 8.22917 2.51475L8.38761 2.54623C8.43299 2.55531 8.46768 2.56269 8.49178 2.56878L8.52803 2.57774C8.60643 2.60187 8.67867 2.5943 8.74533 2.55531C8.81177 2.51617 8.85408 2.45773 8.87222 2.3797L9.2616 0.947985C9.27961 0.869926 9.27048 0.797891 9.23448 0.731879C9.18009 0.659718 9.11965 0.614712 9.05324 0.596766C8.49797 0.458719 7.91222 0.389648 7.29666 0.389648C5.94437 0.389648 4.73578 0.773953 3.67033 1.54225C2.60492 2.3106 1.86996 3.32522 1.46552 4.5858H0.578276C0.493728 4.5858 0.424371 4.61277 0.370014 4.66679C0.315816 4.72076 0.288574 4.78983 0.288574 4.87391V5.90045C0.288574 5.98447 0.315721 6.05354 0.370014 6.10744C0.424403 6.16153 0.493855 6.18843 0.578276 6.18843H1.18495C1.16672 6.47667 1.16383 6.79165 1.17582 7.13401H0.578276C0.499817 7.13401 0.431919 7.16249 0.374581 7.21951C0.317275 7.2765 0.288574 7.34406 0.288574 7.42199V8.43957C0.288574 8.51772 0.317275 8.58506 0.374581 8.64227C0.43195 8.69929 0.499817 8.72755 0.578276 8.72755H1.43847C1.81875 10.0542 2.53712 11.1094 3.59346 11.8927C4.64986 12.6763 5.88428 13.0679 7.29666 13.0679C7.41147 13.0679 7.5276 13.0651 7.64535 13.0588C7.76333 13.0528 7.87328 13.0437 7.97593 13.0319C8.0785 13.02 8.17966 13.0066 8.27927 12.9915C8.37879 12.9764 8.46939 12.9616 8.5508 12.9464C8.63231 12.9315 8.70928 12.9165 8.78164 12.9016C8.85414 12.8864 8.91903 12.8701 8.97646 12.852C9.03377 12.8342 9.08184 12.8205 9.12123 12.8117C9.16053 12.8027 9.19221 12.792 9.21618 12.7802L9.26156 12.7711C9.328 12.7471 9.37932 12.7036 9.41547 12.6404C9.45172 12.5778 9.4606 12.5101 9.44258 12.4381Z" fill="#CAFF33"/>
</svg>
