<svg width="64" height="64" viewBox="0 0 64 64" fill="none" xmlns="http://www.w3.org/2000/svg">
<rect width="64" height="64" rx="32" fill="url(#paint0_linear_108_2455)" fill-opacity="0.05"/>
<rect x="8" y="8" width="48" height="48" rx="24" fill="url(#paint1_linear_108_2455)" fill-opacity="0.1"/>
<rect x="8.5" y="8.5" width="47" height="47" rx="23.5" stroke="url(#paint2_linear_108_2455)" stroke-opacity="0.2"/>
<g clip-path="url(#clip0_108_2455)">
<path d="M34.154 25.5026C34.1804 25.5334 34.1848 25.5422 34.1892 25.5422C34.6247 25.6038 34.827 25.9293 35.0602 26.2548C35.3285 26.6244 35.6496 26.9631 35.9928 27.271C36.8946 28.0848 37.4489 29.0702 37.6336 30.2712C37.9547 32.3739 36.7494 34.5339 34.7698 35.3741C31.7653 36.6498 28.4088 34.7098 28.0613 31.4633C27.8765 29.7345 28.51 28.3048 29.8297 27.1786C30.2564 26.8135 30.6127 26.3912 30.9075 25.9117C30.9602 25.8237 31.057 25.7533 31.1494 25.7093C31.299 25.639 31.4661 25.5994 31.6553 25.5334C31.5937 25.4586 31.5497 25.4058 31.5013 25.353C31.2066 25.0495 30.9119 24.7372 30.6127 24.4424C30.5071 24.3368 30.4588 24.2269 30.4632 24.0773C30.472 23.4526 30.4676 22.8324 30.4676 22.2077C30.4676 21.957 30.7755 21.5566 31.0262 21.5082C31.3122 21.4511 31.6069 21.4203 31.8928 21.3631C31.9764 21.3455 32.0688 21.2927 32.1172 21.2267C32.5351 20.6636 33.2698 20.6592 33.6833 21.2179C33.7405 21.2927 33.8504 21.3499 33.9428 21.3719C34.2068 21.4291 34.4751 21.4599 34.7434 21.5082C35.0118 21.561 35.2977 21.9086 35.2977 22.1813C35.2977 22.8104 35.2933 23.4438 35.3021 24.0729C35.3065 24.2357 35.2537 24.3456 35.1437 24.46C34.8094 24.7987 34.4883 25.1463 34.154 25.5026ZM32.3064 27.9529C32.2932 28.0057 32.28 28.0365 32.2844 28.0628C32.3416 28.3576 32.2052 28.4852 31.9324 28.5951C31.4133 28.8107 31.1802 29.2462 31.1934 29.8049C31.2066 30.3592 31.5057 30.7023 32.0072 30.8826C32.2272 30.9618 32.4559 31.019 32.6759 31.0938C32.8782 31.1598 33.0806 31.2258 33.2742 31.305C33.4369 31.3709 33.5293 31.4985 33.5117 31.6833C33.4941 31.8724 33.3753 31.9824 33.2082 32.0132C33.0366 32.0484 32.8518 32.0792 32.6891 32.0396C32.3723 31.9648 32.0688 31.8372 31.7345 31.7229C31.5849 31.9208 31.4133 32.1452 31.2066 32.4223C31.5189 32.5587 31.7873 32.6995 32.0732 32.7962C32.236 32.849 32.302 32.9194 32.28 33.0866C32.2668 33.2053 32.2756 33.3285 32.2756 33.4649C32.5263 33.4649 32.7375 33.4649 32.9486 33.4649C33.2522 33.4649 33.2654 33.4649 33.2478 33.1526C33.239 32.959 33.2829 32.8534 33.4941 32.827C33.6041 32.8138 33.7141 32.7522 33.8152 32.6951C34.2815 32.4399 34.4751 32.0308 34.4663 31.5117C34.4575 31.019 34.2111 30.6803 33.7712 30.4823C33.5733 30.3943 33.3621 30.3284 33.151 30.258C32.887 30.17 32.6231 30.0908 32.3591 29.994C32.1964 29.9324 32.1304 29.8005 32.1436 29.6245C32.1568 29.4573 32.258 29.343 32.4119 29.3166C32.5967 29.2858 32.7947 29.2682 32.975 29.299C33.195 29.3386 33.4017 29.4397 33.6349 29.5189C33.78 29.2946 33.9296 29.057 34.1056 28.7799C33.9032 28.6875 33.7317 28.5731 33.5469 28.5423C33.2873 28.4984 33.2082 28.3796 33.239 28.1332C33.2478 28.076 33.1686 27.9617 33.1202 27.9573C32.8562 27.9441 32.5791 27.9529 32.3064 27.9529Z" fill="#CAFF33"/>
<path d="M32.5438 43.1912C31.6068 43.1912 30.6654 43.1648 29.7284 43.2C29.0993 43.222 28.5626 43.0328 28.0567 42.6985C27.3397 42.219 26.6842 41.6735 26.1123 41.0225C25.2677 40.0591 24.4143 39.0957 23.5697 38.1323C22.879 37.3405 23.1914 36.1703 24.1768 35.8492C24.2911 35.8096 24.4231 35.7964 24.5419 35.7964C25.3249 35.792 26.1123 35.7876 26.8954 35.8008C27.0053 35.8008 27.1373 35.858 27.2165 35.9328C27.7532 36.4519 28.2811 36.9841 28.8046 37.5164C28.9101 37.622 29.0069 37.644 29.1565 37.622C29.4732 37.5736 29.7988 37.5296 30.1199 37.5296C31.6024 37.5208 33.0804 37.5252 34.5629 37.5252C35.0688 37.5252 35.4427 37.7848 35.5747 38.2159C35.7771 38.8669 35.302 39.4784 34.5761 39.4828C33.5951 39.4872 32.6097 39.4828 31.6288 39.4828C31.4528 39.4828 31.2768 39.4784 31.1009 39.4828C30.7841 39.4916 30.5774 39.694 30.573 39.9799C30.573 40.2702 30.7797 40.4902 31.0921 40.4902C32.6537 40.4946 34.2154 40.4946 35.7771 40.4902C36.0938 40.4902 36.3226 40.3142 36.5425 40.1031C37.5631 39.1221 38.5837 38.1411 39.6086 37.1645C40.0266 36.7642 40.5808 36.7466 40.9768 37.1029C41.4035 37.49 41.4123 38.1147 40.9812 38.5502C40.5281 39.0121 40.0661 39.4476 39.6086 39.8919C38.5969 40.8729 37.5851 41.8495 36.5777 42.8305C36.3314 43.068 36.0586 43.1912 35.7111 43.1912C34.6553 43.1868 33.5995 43.1912 32.5438 43.1912Z" fill="#CAFF33"/>
<path d="M27.3089 24.6008C27.7356 25.0275 28.1623 25.4542 28.5802 25.8722C28.3207 26.1317 28.0479 26.4044 27.7752 26.6728C27.3705 26.2549 26.9438 25.815 26.5347 25.3927C26.7766 25.1463 27.0494 24.8648 27.3089 24.6008Z" fill="#CAFF33"/>
<path d="M38.4169 24.6008C38.6764 24.8604 38.9447 25.1375 39.1955 25.3883C38.7776 25.8062 38.3421 26.2417 37.9198 26.6596C37.6646 26.4044 37.3963 26.1273 37.1279 25.859C37.5458 25.4498 37.9769 25.0275 38.4169 24.6008Z" fill="#CAFF33"/>
<path d="M39.4283 31.5337C39.4283 31.1598 39.4239 30.8166 39.4327 30.4735C39.4327 30.4295 39.5163 30.3503 39.5603 30.3503C40.097 30.3416 40.6293 30.3416 41.166 30.3503C41.21 30.3503 41.2935 30.4163 41.2935 30.4515C41.3023 30.8079 41.2979 31.1642 41.2979 31.5337C40.6689 31.5337 40.0618 31.5337 39.4283 31.5337Z" fill="#CAFF33"/>
<path d="M26.2842 31.5469C25.6771 31.5469 25.1096 31.5513 24.5377 31.5425C24.4938 31.5425 24.4234 31.4589 24.419 31.4105C24.4102 31.1026 24.4058 30.7947 24.419 30.4867C24.419 30.4383 24.507 30.3503 24.5553 30.3503C25.0832 30.3416 25.6111 30.3416 26.139 30.3503C26.1874 30.3503 26.2754 30.4207 26.2754 30.4647C26.2886 30.8079 26.2842 31.1598 26.2842 31.5469Z" fill="#CAFF33"/>
</g>
<defs>
<linearGradient id="paint0_linear_108_2455" x1="32" y1="0" x2="32" y2="64" gradientUnits="userSpaceOnUse">
<stop stop-color="#CAFF33"/>
<stop offset="1" stop-color="#CAFF33" stop-opacity="0"/>
</linearGradient>
<linearGradient id="paint1_linear_108_2455" x1="32" y1="-23.7838" x2="32" y2="131.892" gradientUnits="userSpaceOnUse">
<stop stop-color="#CAFF33"/>
<stop offset="0.467671" stop-color="#CAFF33" stop-opacity="0"/>
</linearGradient>
<linearGradient id="paint2_linear_108_2455" x1="32" y1="-75.3514" x2="32" y2="99.4595" gradientUnits="userSpaceOnUse">
<stop stop-color="#CAFF33"/>
<stop offset="0.716291" stop-color="#CAFF33" stop-opacity="0"/>
</linearGradient>
<clipPath id="clip0_108_2455">
<rect width="18.1021" height="22.4" fill="white" transform="translate(23.2002 20.8)"/>
</clipPath>
</defs>
</svg>
