<svg width="64" height="64" viewBox="0 0 64 64" fill="none" xmlns="http://www.w3.org/2000/svg">
<rect width="64" height="64" rx="32" fill="url(#paint0_linear_108_2468)" fill-opacity="0.05"/>
<rect x="8" y="8" width="48" height="48" rx="24" fill="url(#paint1_linear_108_2468)" fill-opacity="0.1"/>
<rect x="8.5" y="8.5" width="47" height="47" rx="23.5" stroke="url(#paint2_linear_108_2468)" stroke-opacity="0.2"/>
<g clip-path="url(#clip0_108_2468)">
<path d="M39.7262 31.2147C39.7262 31.813 39.7343 32.4073 39.7222 33.0056C39.7142 33.3284 39.8065 33.6118 39.9752 33.8794C40.4088 34.58 40.9829 35.1665 41.5651 35.7451C41.7819 35.9616 42.0067 36.1663 42.2355 36.367C42.348 36.4654 42.4001 36.5677 42.4001 36.7212C42.3921 37.3786 42.3921 38.0319 42.3961 38.6893C42.4001 39.2364 42.1593 39.6457 41.6574 39.874C41.1435 40.1062 40.6617 40.0078 40.2401 39.6497C39.3689 38.9018 38.5017 38.15 37.6345 37.4022C37.0443 36.8905 36.4581 36.3709 35.8559 35.875C35.6431 35.6979 35.3902 35.568 35.1453 35.4342C34.7839 35.2374 34.3945 35.1311 33.9729 35.1468C33.6678 35.1586 33.3546 35.1626 33.0495 35.139C32.6039 35.1035 32.2867 34.8005 32.2265 34.3832C32.1703 34.0172 32.3911 33.6236 32.7604 33.4819C32.901 33.4268 33.0575 33.4032 33.2101 33.4032C34.3664 33.3953 35.5227 33.3992 36.683 33.3992C37.1166 33.3992 37.2732 33.2457 37.2732 32.8167C37.2732 31.9508 37.2691 31.0848 37.2732 30.2189C37.2772 29.8883 37.1607 29.6285 36.9078 29.4041C35.4504 28.121 34.001 26.83 32.5477 25.539C32.1582 25.1926 32.114 24.6809 32.4393 24.307C32.7604 23.9331 33.2864 23.8976 33.6999 24.2125C35.5588 25.6295 37.4137 27.0465 39.2806 28.4556C39.5897 28.6878 39.7343 28.9712 39.7303 29.3451C39.7222 29.967 39.7262 30.5889 39.7262 31.2147Z" fill="#CAFF33"/>
<path d="M20.804 37.7643C20.804 37.41 20.808 37.0558 20.8 36.7015C20.796 36.5638 20.8522 36.4732 20.9445 36.3788C21.5508 35.7687 22.149 35.1507 22.7432 34.5288C22.8677 34.3989 22.96 34.2454 23.0684 34.1037C23.3535 33.7219 23.486 33.3047 23.4739 32.8167C23.4498 31.6909 23.4779 30.5613 23.4619 29.4317C23.4538 28.9869 23.6144 28.672 23.9798 28.3965C25.8347 27.011 27.6694 25.6019 29.5123 24.1967C29.8977 23.9015 30.4277 23.9488 30.7408 24.303C31.062 24.6651 31.0339 25.1847 30.6605 25.5232C30.0944 26.0349 29.5203 26.5347 28.9502 27.0425C28.0468 27.8415 27.1435 28.6445 26.2402 29.4435C26.0274 29.6324 25.923 29.8607 25.923 30.1362C25.923 31.0533 25.919 31.9704 25.923 32.8914C25.923 33.2299 26.0996 33.3953 26.4489 33.3953C27.6413 33.3992 28.8297 33.3953 30.0222 33.3992C30.5842 33.3992 30.9777 33.7849 30.9657 34.3045C30.9576 34.702 30.6645 35.0602 30.259 35.1192C30.0181 35.1547 29.7652 35.1704 29.5203 35.1468C28.6973 35.0681 28.0027 35.3633 27.3884 35.8435C26.7621 36.3315 26.1759 36.8747 25.5777 37.3903C24.6984 38.1461 23.8232 38.9096 22.9399 39.6614C22.2253 40.2715 21.1694 40.0039 20.8642 39.134C20.8241 39.0238 20.8121 38.9018 20.808 38.7876C20.8 38.4491 20.804 38.1067 20.804 37.7643Z" fill="#CAFF33"/>
<path d="M32.1699 32.0295C32.1699 32.2184 32.1699 32.3955 32.1699 32.5884C31.8326 32.5884 31.5115 32.5884 31.1622 32.5884C31.1622 32.4349 31.1581 32.2853 31.1622 32.1358C31.1662 32.0256 31.1341 31.9783 31.0176 31.9508C30.6844 31.872 30.3752 31.7382 30.0862 31.5099C30.2709 31.2698 30.4475 31.0415 30.6081 30.829C30.9132 30.9431 31.1903 31.077 31.4834 31.1439C31.6961 31.1911 31.933 31.1596 32.1538 31.1242C32.3225 31.0966 32.4309 30.9668 32.4429 30.7896C32.459 30.6086 32.3626 30.4826 32.202 30.4196C31.929 30.3173 31.6439 30.2386 31.3669 30.1481C31.1662 30.0811 30.9574 30.0221 30.7607 29.9395C30.299 29.7466 30.0541 29.4042 30.042 28.9003C30.03 28.3729 30.2307 27.9478 30.7125 27.7195C31.0257 27.57 31.2947 27.4597 31.1381 27.0228C31.4793 27.0228 31.7764 27.0189 32.0776 27.0307C32.1097 27.0307 32.1659 27.1291 32.1659 27.1842C32.186 27.5188 32.186 27.5109 32.5031 27.6211C32.6878 27.6841 32.8645 27.7746 33.0652 27.8652C32.8966 28.121 32.7601 28.3454 32.6075 28.5579C32.5834 28.5894 32.4871 28.5855 32.4309 28.5697C32.1659 28.5028 31.9089 28.4162 31.6439 28.365C31.5396 28.3454 31.4191 28.3768 31.3107 28.4044C31.1501 28.4477 31.0417 28.554 31.0297 28.7272C31.0176 28.8964 31.0939 29.0263 31.2505 29.0893C31.4552 29.1719 31.664 29.2349 31.8728 29.3018C32.1016 29.3766 32.3385 29.4317 32.5593 29.5144C33.1977 29.7584 33.4547 30.1441 33.4225 30.7778C33.3904 31.3604 33.0251 31.7933 32.4228 31.9626C32.3506 31.9862 32.2743 32.0059 32.1699 32.0295Z" fill="#CAFF33"/>
</g>
<defs>
<linearGradient id="paint0_linear_108_2468" x1="32" y1="0" x2="32" y2="64" gradientUnits="userSpaceOnUse">
<stop stop-color="#CAFF33"/>
<stop offset="1" stop-color="#CAFF33" stop-opacity="0"/>
</linearGradient>
<linearGradient id="paint1_linear_108_2468" x1="32" y1="-23.7838" x2="32" y2="131.892" gradientUnits="userSpaceOnUse">
<stop stop-color="#CAFF33"/>
<stop offset="0.467671" stop-color="#CAFF33" stop-opacity="0"/>
</linearGradient>
<linearGradient id="paint2_linear_108_2468" x1="32" y1="-75.3514" x2="32" y2="99.4595" gradientUnits="userSpaceOnUse">
<stop stop-color="#CAFF33"/>
<stop offset="0.716291" stop-color="#CAFF33" stop-opacity="0"/>
</linearGradient>
<clipPath id="clip0_108_2468">
<rect width="21.6" height="16" fill="white" transform="translate(20.7998 24)"/>
</clipPath>
</defs>
</svg>
